
<svg width="30px" height="30px" viewBox="0 0 30 30" version="1.1" xmlns="http://www.w3.org/2000/svg" xmlns:xlink="http://www.w3.org/1999/xlink">
    <g id="页面-1" stroke="none" stroke-width="1" fill="none" fill-rule="evenodd">
        <g id="QR-code-Outlined" transform="translate(-299.000000, -419.000000)">
            <g transform="translate(299.000000, 419.000000)">
                <rect id="矩形" fill="#000000" fill-rule="nonzero" opacity="0" x="0" y="0" width="30" height="30"></rect>
                <path d="M12.1875,15.9375 C13.2230339,15.9375 14.0625,16.7769661 14.0625,17.8125 L14.0625,24.375 C14.0625,25.4105339 13.2230339,26.25 12.1875,26.25 L5.625,26.25 C4.58946609,26.25 3.75,25.4105339 3.75,24.375 L3.75,17.8125 C3.75,16.7769661 4.58946609,15.9375 5.625,15.9375 L12.1875,15.9375 Z M19.6875,15.9374999 C20.6687107,15.9371895 21.4842217,16.6934278 21.5578125,17.671875 L21.5625,17.8125 L21.5625,20.625 L24.375,20.625 L24.375,16.875 C24.3755502,16.3789749 24.7623848,15.9692205 25.2575576,15.9401512 C25.7527305,15.9110818 26.1848524,16.272759 26.2434375,16.7653125 L26.2500001,16.875 L26.2500001,20.625 C26.2503105,21.6062107 25.4940722,22.4217217 24.515625,22.4953125 L24.375,22.5 L21.5625,22.5 C20.5812893,22.5003105 19.7657783,21.7440722 19.6921875,20.765625 L19.6875,20.625 L19.6875,17.8125 L17.8125,17.8125 L17.8125,25.3125 C17.8119498,25.8085251 17.4251152,26.2182795 16.9299424,26.2473488 C16.4347695,26.2764182 16.0026476,25.914741 15.9440625,25.4221875 L15.9374999,25.3125 L15.9374999,17.8125 C15.9371895,16.8312893 16.6934278,16.0157783 17.671875,15.9421875 L17.8125,15.9374999 L19.6875,15.9374999 Z M21.09375,23.4375 C21.8704004,23.4375 22.5,24.0670996 22.5,24.84375 C22.5,25.6204004 21.8704004,26.25 21.09375,26.25 C20.3170996,26.25 19.6875,25.6204004 19.6875,24.84375 C19.6875,24.0670996 20.3170996,23.4375 21.09375,23.4375 L21.09375,23.4375 Z M24.84375,23.4375 C25.6204004,23.4375 26.25,24.0670996 26.25,24.84375 C26.25,25.6204004 25.6204004,26.25 24.84375,26.25 C24.0670996,26.25 23.4375,25.6204004 23.4375,24.84375 C23.4375,24.0670996 24.0670996,23.4375 24.84375,23.4375 L24.84375,23.4375 Z M12.1875,17.8125 L5.625,17.8125 L5.625,24.375 L12.1875,24.375 L12.1875,17.8125 Z M8.90625,19.6875 C9.68290043,19.6875 10.3125,20.3170996 10.3125,21.09375 C10.3125,21.8704004 9.68290043,22.5 8.90625,22.5 C8.12959957,22.5 7.5,21.8704004 7.5,21.09375 C7.5,20.3170996 8.12959957,19.6875 8.90625,19.6875 Z M12.1875,3.75 C13.2230339,3.75 14.0625,4.58946609 14.0625,5.625 L14.0625,12.1875 C14.0625,13.2230339 13.2230339,14.0625 12.1875,14.0625 L5.625,14.0625 C4.58946609,14.0625 3.75,13.2230339 3.75,12.1875 L3.75,5.625 C3.75,4.58946609 4.58946609,3.75 5.625,3.75 L12.1875,3.75 Z M24.375,3.75 C25.4105339,3.75 26.25,4.58946609 26.25,5.625 L26.25,12.1875 C26.25,13.2230339 25.4105339,14.0625 24.375,14.0625 L17.8125,14.0625 C16.7769661,14.0625 15.9375,13.2230339 15.9375,12.1875 L15.9375,5.625 C15.9375,4.58946609 16.7769661,3.75 17.8125,3.75 L24.375,3.75 Z M12.1875,5.625 L5.625,5.625 L5.625,12.1875 L12.1875,12.1875 L12.1875,5.625 Z M24.375,5.625 L17.8125,5.625 L17.8125,12.1875 L24.375,12.1875 L24.375,5.625 Z M8.90625,7.5 C9.68290043,7.5 10.3125,8.12959957 10.3125,8.90625 C10.3125,9.68290043 9.68290043,10.3125 8.90625,10.3125 C8.12959957,10.3125 7.5,9.68290043 7.5,8.90625 C7.5,8.12959957 8.12959957,7.5 8.90625,7.5 Z M21.09375,7.5 C21.8704004,7.5 22.5,8.12959957 22.5,8.90625 C22.5,9.68290043 21.8704004,10.3125 21.09375,10.3125 C20.3170996,10.3125 19.6875,9.68290043 19.6875,8.90625 C19.6875,8.12959957 20.3170996,7.5 21.09375,7.5 Z" id="形状" fill="#000000" fill-rule="nonzero"></path>
            </g>
        </g>
    </g>
</svg>